<?xml version="1.0" encoding="UTF-8"?>
<svg id="Layer_2" data-name="Layer 2" xmlns="http://www.w3.org/2000/svg" viewBox="0 0 459.01 296.58">
  <defs>
    <style>
      .cls-1 {
        fill: #e8242b;
      }

      .cls-2 {
        fill: #323337;
      }
    </style>
  </defs>
  <g id="Layer_1-2" data-name="Layer 1">
    <path class="cls-1" d="M68.57,25.84c3.06-6.16,6.8-9.37,8.49-10.74,5.1-4.17,10.03-5.08,13.66-5.79,4.16-.81,8.31-1.79,12.52-2.15,12.18-1.06,22.22,3.55,30.7,12.11,4.73,4.78,6.38,4.67,11.65,.41,5.25-4.24,10.52-8.43,16.88-11.08,7.38-3.08,15.1-4.64,22.97-5.11,9.14-.55,18.31-.25,27.16,2.71,2.12,.71,4.4,1.07,6.41,2,3.94,1.82,7.65,.96,11.23-.71,7.13-3.32,14.7-4.96,22.4-6.02,5.35-.73,10.76-1.58,16.12-1.45,6.61,.17,13.26,.94,19.78,2.1,8.53,1.52,16.78,4.15,24.34,8.59,6.05,3.55,11.94,7.4,16.39,12.87,3.48,4.28,4.53,9.73,5.35,15.04,1.9,12.27,3.6,24.57,5.26,36.88,1.38,10.29,2.17,20.69,4,30.9,1.36,7.59,3.27,15.24,6.2,22.34,3.45,8.34,10.49,13.62,19,16.54,5.8,1.99,10.86,.1,15.09-4.15,2.11-2.12,4.14-4.33,6.24-6.55,.22,5.05-3.06,8.25-5.56,10.65-6.19,5.94-8.68,7.32-17.17,8.03-8.02,.67-16.08,.23-23.84-2.26-9.4-3.02-18.01-7.5-25.11-14.54-3.32-3.29-3.32-3.33-7.22-.71-4.36,2.93-8.69,5.89-13.06,8.79-7.45,4.95-15.96,7.02-24.54,8.75-8.52,1.72-16.92,1.07-25.12-1.92-2.94-1.07-5.89-2.13-8.84-3.18-5.1-1.82-10.18-.88-15.2,.29-13.28,3.1-26.59,6.02-40.23,7.13-4.12,.34-8.21,1.26-12.32,1.32-9.61,.13-18.9-2.21-28.06-4.75-7.96-2.21-15.55-5.41-22.82-9.48-5.51-3.09-8.81-7.32-9.75-13.39-.71-4.57-1.39-9.2-1.5-13.81-.23-9.43-.16-18.88-.03-28.31,.09-6.9,.79-13.8,.65-20.68-.17-8.24-.53-16.53-1.64-24.69-.68-4.99-2.38-10.04-4.58-14.59-4.81-9.95-13.37-13.05-23.75-8.05-2.81,1.35-7.86,4.45-12.14,6.68Zm105.54,124.84c7.63,.13,14.42-1.75,20.77-4.73,12.31-5.76,18.45-16.75,23.11-28.78,2.07-5.34,3.64-10.91,6.12-16.05,4.9-10.15,12.57-17.12,23.84-20.09,11.72-3.1,23.25-6.89,34.88-10.33,4.63-1.37,8.66-3.63,12.44-6.7,5.9-4.79,7.79-11.23,7.82-18.25,.02-3.81-1.27-7.63-2.01-11.44-2.7-13.98-17.29-29.44-33.88-31.14-5.17-.53-10.52-.31-14.48,3.61-2.33,2.3-4.66,5.2-5.54,8.25-2.22,7.66-3.69,15.54-5.33,23.36-1.6,7.63-4.16,14.81-10.41,19.88-8.12,6.58-17.59,10.48-27.72,12.72-13.55,3-27.22,5.57-39.69,12.09-10.35,5.41-17.74,13.16-20.4,24.94-2.33,10.33,.31,19.5,5.59,28.33,5.78,9.69,13.98,14.75,24.9,14.34Zm132.01-85.91c-2.59,.94-4.58,1.35-6.26,2.31-14.11,8.04-28.24,16.04-42.17,24.38-2.99,1.79-5.45,4.72-7.68,7.5-5.5,6.88-6.49,15.08-5.86,23.52,.57,7.69,3.75,14.22,9.85,19.13,5.29,4.27,11.54,5.9,18.16,6.01,6.15,.1,12.07-.99,17.8-3.58,7.5-3.38,12.89-8.81,17.08-15.68,3.42-5.61,3.75-11.98,3.71-18.18-.06-9.26-.68-18.53-1.54-27.75-.53-5.69-1.94-11.31-3.09-17.67Zm-165.72,3.33c.35,5.51,.71,11.01,1.05,16.52,.22,3.47,1.09,4.07,4.18,2.44,6.98-3.68,13.91-7.44,20.82-11.24,7.24-3.99,14.3-8.31,21.66-12.07,13.04-6.67,19.28-21.18,15.86-34.19-5.25-19.97-25.57-26.71-42.72-16.91-9.76,5.58-15.67,14.03-17.76,25.22-1.87,10.01-3.11,20.03-3.08,30.24Z"/>
    <g>
      <path class="cls-2" d="M346.68,227.76c-5.06,4.9-11.64,2.86-17.82,4.01-1.16,5-3.42,9.29-9.01,10.7-.6,.15-1.19,.51-1.79,.51-7.14,.04-14.29,.02-21.7,.02v-5.82c1.63-.1,3.2-.25,4.77-.3,4.52-.15,9.05-.16,13.57-.41,3.12-.17,3.96-1.12,4.86-5.18-4.33,0-8.54-.13-12.74,.03-7.86,.29-12.52-5.09-12.8-13.06-.13-3.77-.07-7.55-.01-11.32,.11-7.06,5.01-11.98,12.13-12.09,4.9-.08,9.82,.18,14.71-.07,5.92-.31,8.19,1.98,8.35,8.7,.15,5.91,.03,11.83,.04,17.74,0,.87,.08,1.73,.12,2.56,8.65,2.55,12.9-.58,12.99-9.32,.03-2.63,.18-5.28,.6-7.87,1.22-7.54,3.9-10.62,11.52-11.57,5.26-.66,10.71-.48,16.01,.05,5.42,.54,8.6,4.25,9.9,9.45,1.45,5.8,1.44,11.61-.31,17.37-.21,.68-.3,1.4-.53,2.5h13.49c-1.96-4.64-4.27-9.04-5.63-13.71-.88-3.02-.73-6.48-.4-9.68,.39-3.75,3.12-6.01,7-6.08,7.67-.13,15.35-.14,23.01,.06,3.26,.09,5.09,2.46,5.88,5.44,2.06,7.72-.51,14.51-4.45,20.99-.49,.81-1.04,1.58-1.97,2.98,5.75,0,10.85,.17,15.93-.07,2.59-.13,4.3-3.02,4.31-6.56,.03-9.94,.01-19.88,0-29.82,0-1.47,0-2.94,0-4.73h8.5c0,.62,0,1.35,0,2.14-.09,11.93-.14,23.87-.44,35.8-.14,5.64-4.09,9.62-9.72,9.96-4.76,.29-9.55,.18-14.33,.21-19.49,.14-38.99,.24-58.48,.4-5.46,.04-10.8-.26-15.54-3.96Zm4.42-14.6c0,.75,.12,1.53-.02,2.26-.87,4.73,4.11,9.32,7.93,9.75,6.7,.76,11.84-1.79,13.2-7.08,.52-2.02,.3-4.24,.3-6.36,.01-9.1-8.08-14.03-16.35-10.05-5.03,2.42-5.16,6.88-5.06,11.48Zm-30.7,11.28c0-7.17,.12-13.93-.13-20.69-.04-1-1.79-2.69-2.84-2.76-3.07-.21-6.21,.08-9.28,.46-3.59,.45-5.03,3.16-5.28,6.34-.27,3.5-.22,7.04-.01,10.55,.22,3.57,2.19,5.96,4.92,6.06,3.99,.15,8,.04,12.63,.04Zm84.77,.26c4.23-5.71,8.31-10.59,9.78-17.01,.93-4.09-.58-6.16-4.76-6.18-3.76-.02-7.51,0-11.27-.02-2.69-.02-3.79,1.34-3.68,3.98,.31,7.83,5.38,13.09,9.93,19.24Z"/>
      <path class="cls-2" d="M149.79,224.57c0-5.47,0-10.33,0-15.19s0-9.51,0-14.47h8.03v29.39h13.81v-29.21c2.78-.15,5.18-.28,8.07-.44v29.73c3.55,0,6.66,.2,9.74-.07,2.35-.2,4.07-3.29,4.1-6.81,.05-6.04,.03-12.07,.03-18.11,0-1.35,0-2.7,0-4.29h8.08c0,7.44,.05,14.57-.03,21.71-.03,2.48,.08,5.1-.68,7.4-2.06,6.25-7.46,7.23-13.06,7.24-15.09,.04-30.18,0-45.27-.2-3.51-.05-7-.9-11.05-1.45-4.6,.71-10.06,.79-15.98,1.71-.12,.3-.17,1.4-.37,2.99-.68,5.41-5.41,7.89-10.11,8.33-7.07,.66-14.25,.17-21.55,.17v-5.91c.81-.1,1.61-.26,2.42-.28,5.15-.12,10.3-.23,15.45-.29,2.9-.03,4.56-1.5,5.44-4.7-1.07-.14-1.97-.32-2.87-.35-4.27-.16-8.54-.18-12.8-.46-4.96-.32-8.02-3.1-9.35-7.85-1.74-6.24-2.08-12.55-.59-18.87,1.25-5.3,6.13-9.86,11.84-9.51,5.26,.32,10.56,.03,15.84,.02,4.69,0,6.64,1.89,6.66,6.51,.02,7.53,0,15.05,0,23.11,2.59,0,5.01,.39,7.22-.14,1.41-.34,3.07-1.81,3.59-3.17,.92-2.39,1.36-5.07,1.44-7.65,.2-6.01,.06-12.03,.06-18.36h8.07c0,4.63,0,9.11,0,13.59,0,3.14-.04,6.29,0,9.43,.07,4.4,2.03,6.34,6.48,6.44,2.22,.05,4.44,0,7.33,0Zm-42.28-.17c0-7,.17-13.51-.15-20-.06-1.24-1.96-3.32-3.13-3.41-3.31-.25-6.78-.05-9.98,.76-1.61,.41-3.81,2.43-3.96,3.91-.5,4.88-.45,9.86-.08,14.76,.16,2.04,1.77,3.93,4.33,3.97,4.12,.06,8.24,.02,12.97,.02Z"/>
      <path class="cls-2" d="M221.32,204.23h7.48c0,4.3,0,8.39,0,12.49-.01,5.83,1.64,7.63,7.5,7.71,7.27,.1,14.55,.02,21.66,.02,1.72-3.39,1.36-5.45-1.76-7.03-2.74-1.39-5.76-2.33-8.77-3.02-8.23-1.9-10.17-7.95-7.67-15.19,.6-1.75,3.05-3.92,4.78-4.03,6.97-.46,13.99-.19,21.17-.19,.22,1.71,.42,3.26,.67,5.26-1.03,.18-1.94,.47-2.84,.49-4.02,.05-8.04,.07-12.06,0-2.18-.03-4.17,.27-4.48,2.85-.28,2.39,1.22,3.62,3.4,4.25,3.23,.92,6.48,1.8,9.64,2.92,6.05,2.15,9.19,8.32,7.53,14.52-1.08,4.05-3.93,6.14-9.1,6.16-8.92,.03-17.83-.14-26.75-.24-7.06-.07-11.56-5.32-11.03-11.44,.42-4.87,.15-9.79,.2-14.69,0-.22,.21-.43,.43-.83Z"/>
      <path class="cls-2" d="M34.58,263.19h10.23c1.73,7.5,3.48,15.09,5.23,22.68,.29,0,.58,0,.87,0,1.77-7.6,3.55-15.21,5.32-22.8h9.61v31.45c-.45,.31-.64,.55-.84,.56q-5.75,.24-5.64-5.45c.08-4,.23-8,.28-12.01,0-.67-.34-1.35-1.1-2.07-1.49,6.32-2.98,12.63-4.57,19.36-1.37,.08-2.97,.05-4.53,.3-1.85,.29-2.74-.22-3.11-2.18-1.15-6.24-2.47-12.44-3.74-18.66-.22-1.05-.54-2.09-1.56-3.06v23.58h-6.45v-31.71Z"/>
      <path class="cls-2" d="M46.57,194.62c2.96,.15,5.52,.28,9.04,.46-.64,9.37-.85,18.48-2.05,27.45-.67,4.97-4.69,8.22-9.77,8.39-10.15,.34-20.33,.23-30.49-.02-4.14-.1-8.64-4.01-9.14-8.11-.81-6.61-.95-13.31-1.38-20.14H11.42c0,4.36-.02,8.58,0,12.81,.03,6.36,2.5,9,8.74,9.08,5.9,.07,11.81,.04,17.71-.12,6.08-.16,8.42-2.64,8.49-8.88,.07-6.03,.01-12.06,.02-18.09,0-.74,.09-1.48,.18-2.83Z"/>
      <path class="cls-2" d="M356.6,294.97h-7.09c-1.46-6.99-2.9-13.87-4.34-20.76-.34-.07-.68-.13-1.02-.2-1.42,6.86-2.84,13.71-4.25,20.52-6.36,1.61-7.35,.99-8.85-4.83-1.99-7.71-4.14-15.38-6.21-23.08-.28-1.03-.46-2.08-.77-3.47h7.11c1.65,6.74,3.32,13.57,4.98,20.4,.23,0,.47,0,.7-.01,1.36-6.76,2.72-13.53,4.11-20.43h7.45c1.38,6.87,2.73,13.59,4.08,20.32,.31-.02,.62-.04,.93-.06,1.29-5.42,3.1-10.78,3.69-16.27,.43-3.95,2.1-4.58,5.29-4.21,.72,.08,1.45,.12,2.89,.23-2.93,10.72-5.77,21.07-8.71,31.85Z"/>
      <path class="cls-2" d="M449.89,283.52c-3.47-.23-7-.46-11.18-.74v12.19h-7.07v-31.72c6.57,0,13.15-.78,19.45,.2,7.43,1.15,9.62,9.25,4.74,15.06-.32,.38-.62,.78-.56,.7,.83,2.83,1.79,5.23,2.2,7.72,.42,2.54,.31,5.16,.45,8.03h-6.99c-.31-3.38-.63-6.82-1.06-11.43Zm-10.95-6.93c3.02,0,5.85-.03,8.68,.01,2.16,.03,3.24-1.18,3.5-3.1,.29-2.2-.6-4.26-2.81-4.57-2.99-.42-6.09-.1-9.36-.1v7.77Z"/>
      <path class="cls-2" d="M255.71,263.01c6.47,0,12.62-.34,18.7,.13,3.58,.27,6.6,2.45,7.69,6.27,1.2,4.17-.09,7.64-3.79,10.64,5.52,3.79,2.14,9.78,4.3,15.13-2.25,0-4.2,.17-6.09-.09-.75-.1-1.45-1.1-2-1.81-.26-.33-.18-.98-.13-1.47,.96-9.57-.74-9.27-11.5-8.49v11.62h-7.18v-31.93Zm7.94,13.88c2.24,0,4.95,.05,7.66-.02,2.1-.05,3.53-.96,3.83-3.26,.31-2.4-.92-3.95-2.87-4.71-6.48-2.53-10.05,.21-9.26,6.96,.01,.11,.13,.21,.65,1.03Z"/>
      <path class="cls-2" d="M219.12,281.82c.22-9.5,2.13-15.71,9.31-18.55,9.97-3.95,21.47,1.46,21.96,14.31,.26,6.78-.75,13.14-7.45,16.84-10.04,5.54-24.55,.15-23.82-12.59Zm6.93-2.63c.18,.05,.36,.11,.54,.16,0,1.13-.11,2.27,.02,3.39,.45,4.07,3.2,7.02,6.73,7.33,4.56,.41,8.02-1.49,9.18-5.26,1.21-3.92,1.26-7.79-.47-11.69-1.39-3.13-3.79-4.65-6.95-4.88-3.04-.22-5.72,.86-6.92,3.95-.88,2.27-1.44,4.66-2.14,7Z"/>
      <path class="cls-2" d="M131.73,295h-7.78c0-2.38,.09-4.58-.02-6.77-.2-4.3-1.15-5.17-5.5-5.23-1.87-.03-3.74,0-6.02,0-.19,4.2-.36,8.13-.54,12.15h-6.63v-32.18c6.06,0,12.08-.35,18.03,.13,3.65,.3,7.01,2.27,7.99,6.33,.99,4.07,0,7.69-3.53,10.38,3.95,4.34,2.1,9.98,4,15.21Zm-19.32-26.29c-.13,2.68-.25,5.16-.36,7.56,.89,.29,1.23,.49,1.57,.49,2.11-.01,4.22-.12,6.32-.11,2.38,.02,4.22-.52,4.32-3.41,.1-2.76-1.26-4.34-4.23-4.51-2.35-.13-4.72-.03-7.62-.03Z"/>
      <path class="cls-2" d="M159.73,285.82c3.16-1.09,5.59-1.23,7.43,2.19,1.6,2.97,8,3.51,10.73,1.35,2.2-1.74,1.87-4.46-.97-5.57-2.64-1.04-5.51-1.47-8.25-2.29-7.96-2.37-9.34-4.21-8.21-12.27,.2-1.42,1.4-2.89,2.49-3.97,5.14-5.1,16.42-4.12,20.44,1.82,1.05,1.56,1.43,3.58,2.3,5.87h-6.66c-2.58-4.02-5.49-5.4-9.37-4.52-1.88,.42-3.16,1.5-2.69,3.36,.3,1.18,1.42,2.65,2.51,3.05,3.38,1.23,7.01,1.76,10.37,3.03,5.63,2.13,6.66,4.28,5.96,10.88-.3,2.82-3.91,6.22-7.52,7.04-3.96,.9-7.85,.88-11.79-.33-4.73-1.45-6.84-4.2-6.76-9.62Z"/>
      <path class="cls-2" d="M91.68,263.09h6.56v7.43c0,5.02,.02,10.05,0,15.07-.03,6.4-2.59,9.47-8.92,10.25-2.65,.33-5.41,.36-8.06,0-5.65-.76-8.76-3.79-9.07-9.66-.39-7.5-.09-15.04-.09-22.92h7.27c0,3.77,0,7.61,0,11.46,0,3.26-.06,6.53,.02,9.79,.08,2.82,2.13,5.21,4.65,5.53,2.94,.38,5.62-.03,6.67-3.32,.52-1.64,.9-3.39,.93-5.1,.11-6.11,.04-12.23,.04-18.53Z"/>
      <path class="cls-2" d="M376.15,268.64v6.75h15.46v6.01h-15.37v7.84h17.68c-.13,2.24-.24,3.99-.34,5.74h-23.94v-31.84h23.46c.07,1.7,.15,3.34,.24,5.5h-17.19Z"/>
      <path class="cls-2" d="M407.88,263.05h8.3c3.66,10.42,7.37,21.01,11.26,32.09h-7.46c-.75-1.97-1.45-3.81-2.22-5.83h-11.84c-.59,1.7-1.24,3.54-1.97,5.64h-7.26c3.79-10.8,7.48-21.32,11.19-31.9Zm.18,19.89h7.87c-1.33-3.81-2.49-7.15-3.65-10.49-.29,.02-.58,.04-.87,.07-1.08,3.36-2.17,6.72-3.36,10.42Z"/>
      <path class="cls-2" d="M11.16,263.11c7.82-.54,7.96-.59,10.4,6,2.98,8.06,5.72,16.21,8.54,24.33,.15,.43,.02,.96,.02,1.53h-7.16c-.6-1.98-1.14-3.75-1.73-5.71H9.48c-.73,1.84-1.46,3.68-2.24,5.67H0c3.77-10.75,7.45-21.24,11.16-31.83Zm.11,19.84h7.72c-1.22-3.76-2.29-7.08-3.37-10.39-.32,.03-.64,.06-.96,.09-1.1,3.33-2.19,6.67-3.39,10.3Z"/>
      <path class="cls-2" d="M198.2,295.06h-7.33v-32.44c6.3,.34,12.45,.2,18.42,1.13,4.71,.73,6.67,4.27,6.71,9.47,.04,5.79-1.58,8.6-6.58,9.92-3.42,.9-7.04,1-11.22,1.55v10.38Zm-.04-17.04c2.24,0,4.32,.07,6.4-.02,2.45-.1,3.97-1.36,4.11-3.9,.15-2.67-.89-4.78-3.69-5.2-2.14-.32-4.37-.06-6.82-.06v9.18Z"/>
      <path class="cls-2" d="M281.93,194.99h7.74c.12,1.2,.3,2.16,.3,3.12,.02,11.16-.02,22.33,.03,33.49,.03,6.47-4.71,10.78-10.99,11.43-1.36,.14-2.73,.32-4.09,.46-2.03,.21-4.17,.7-4.3-2.48-.1-2.51,.13-4.35,3.44-4.5,5.66-.27,7.84-2.8,7.86-8.66,.04-9.41,.01-18.82,.01-28.22,0-1.36,0-2.71,0-4.63Z"/>
      <path class="cls-2" d="M69.05,194.88h7.67c.14,1.02,.36,1.85,.37,2.68,.02,10.79,.18,21.59-.04,32.37-.14,6.77-2.46,10.51-8.18,12.47-2.66,.91-5.64,1.06-8.48,1.09-.81,0-2.23-1.56-2.32-2.5-.16-1.68-.52-3.84,2.23-4.43,7.75-1.65,8.8-2.96,8.72-11.02-.09-9.13-.35-18.26-.48-27.39-.01-.97,.3-1.95,.52-3.28Z"/>
      <path class="cls-2" d="M302.06,295.11h-6.87v-26.32h-9.23v-5.61h25.51c.13,1.58,.26,3.22,.45,5.53-2.5,0-4.58,.1-6.65-.03-2.49-.15-3.3,.96-3.26,3.36,.11,6.16,.04,12.33,.04,18.49,0,1.36,0,2.72,0,4.58Z"/>
      <path class="cls-2" d="M137.29,263.1h5.94v31.99h-5.94v-31.99Z"/>
      <path class="cls-2" d="M136.04,242.87h-8.63v-6.13h8.27c.11,1.89,.22,3.79,.36,6.13Z"/>
      <path class="cls-2" d="M253.55,236.81v5.94h-8.2v-5.94h8.2Z"/>
      <path class="cls-2" d="M21.77,183.05h7.49c.15,2.01,.29,3.91,.45,6.11h-7.95v-6.11Z"/>
      <path class="cls-2" d="M32.33,189.16v-6.01h7.54v6.01h-7.54Z"/>
      <path class="cls-2" d="M242.1,242.79h-7.34v-5.95h7.34v5.95Z"/>
      <rect class="cls-2" x="451.14" y="183.11" width="7.87" height="48.19"/>
    </g>
  </g>
</svg>